#N canvas 664 482 694 328 10;
#X declare -path p;
#X obj 244 26 declare -path p;
#X obj 24 23 cnv 10 100 30 empty empty BRO-CRA.CONTROLLER 20 12 0 14
-233017 -66577 0;
#X obj 24 87 continer;
#N canvas 387 263 377 455 senders 0;
#X obj 128 147 mySender 9000;
#X obj 52 69 r send;
#X obj 128 175 mySender 9001;
#X obj 127 208 mySender 9002;
#X obj 127 236 mySender 9003;
#X obj 128 273 mySender 9004;
#X obj 128 301 mySender 9005;
#X obj 129 334 mySender 9006;
#X obj 129 362 mySender 9007;
#X obj 226 149 mySender 9008;
#X obj 226 177 mySender 9009;
#X obj 227 210 mySender 9010;
#X obj 227 238 mySender 9011;
#X obj 228 275 mySender 9012;
#X obj 228 303 mySender 9013;
#X obj 229 336 mySender 9014;
#X obj 229 364 mySender 9015;
#X connect 1 0 0 0;
#X connect 1 0 2 0;
#X connect 1 0 3 0;
#X connect 1 0 4 0;
#X connect 1 0 5 0;
#X connect 1 0 6 0;
#X connect 1 0 7 0;
#X connect 1 0 8 0;
#X connect 1 0 9 0;
#X connect 1 0 10 0;
#X connect 1 0 11 0;
#X connect 1 0 12 0;
#X connect 1 0 13 0;
#X connect 1 0 14 0;
#X connect 1 0 15 0;
#X connect 1 0 16 0;
#X restore 361 26 pd senders;
