#N canvas 65 263 620 423 10;
#X obj 78 173 sendOSC;
#X obj 117 12 loadbang;
#X obj 63 105 r send;
#X obj 18 105 inlet;
#X msg 117 103 connect 127.0.0.1 \$1;
#X obj 117 60 f \$1;
#X connect 1 0 5 0;
#X connect 2 0 0 0;
#X connect 3 0 0 0;
#X connect 4 0 0 0;
#X connect 5 0 4 0;
