#N canvas 69 76 531 534 10;
#N canvas 0 22 450 278 (subpatch) 0;
#X array \$0-ch1 256 float 2;
#X coords 0 1 255 -1 80 60 1 0 0;
#X restore 223 58 graph;
#X obj 83 99 *~ 1;
#X msg 200 132 \; pd dsp \$1;
#X obj 152 51 tgl 15 0 empty empty empty 17 7 0 10 -262144 -1 -1 1
1;
#X obj 126 95 metro 20;
#X obj 126 51 tgl 15 0 empty empty empty 17 7 0 10 -262144 -1 -1 1
1;
#N canvas 0 22 450 278 (subpatch) 0;
#X array \$0-ch2 256 float 2;
#X coords 0 1 255 -1 80 60 1 0 0;
#X restore 305 58 graph;
#X obj 34 98 *~ 1;
#X floatatom 175 50 5 0 0 0 - - -;
#X floatatom 34 236 5 0 0 0 - - -;
#X obj 37 466 hsl 128 15 0 1 0 0 empty empty empty -2 -8 0 10 -262144
-1 -1 11712 1;
#X obj 34 210 peakamp~;
#X floatatom 95 235 5 0 0 0 - - -;
#X obj 95 209 peakamp~;
#X obj 95 261 * 0.5;
#X obj 34 261 * 0.5;
#X obj 34 288 +;
#X obj 34 311 sqrt;
#X obj 158 353 hsl 128 15 0 1 0 0 empty empty empty -2 -8 0 10 -262144
-1 -1 1600 1;
#X obj 34 387 f;
#X obj 34 360 t b f;
#X obj 34 412 expr ($f1*$f2)+((-$f2+1)*$f3);
#X obj 34 440 clip -1 1;
#X obj 34 499 outlet;
#X obj 132 14 inlet;
#X obj 34 13 adc~ 1 2;
#X obj 203 187 tabwrite~ \$0-ch2;
#X obj 182 228 tabwrite~ \$0-ch1;
#X connect 1 0 13 0;
#X connect 1 0 26 0;
#X connect 3 0 2 0;
#X connect 3 0 4 0;
#X connect 4 0 11 0;
#X connect 4 0 13 0;
#X connect 4 0 26 0;
#X connect 4 0 27 0;
#X connect 5 0 4 0;
#X connect 7 0 11 0;
#X connect 7 0 27 0;
#X connect 8 0 7 1;
#X connect 8 0 1 1;
#X connect 9 0 15 0;
#X connect 10 0 23 0;
#X connect 11 0 9 0;
#X connect 12 0 14 0;
#X connect 13 0 12 0;
#X connect 14 0 16 1;
#X connect 15 0 16 0;
#X connect 16 0 17 0;
#X connect 17 0 20 0;
#X connect 18 0 21 1;
#X connect 19 0 21 0;
#X connect 20 0 19 0;
#X connect 20 1 21 2;
#X connect 21 0 19 1;
#X connect 21 0 22 0;
#X connect 22 0 10 0;
#X connect 25 0 7 0;
#X connect 25 1 1 0;
